<svg xmlns="http://www.w3.org/2000/svg" viewBox="0 0 504 504"><circle cx="252" cy="252" r="252" fill="#84dbff"/><path d="M437.9 264H66.2c-6.6 0-12-5.4-12-12s5.4-12 12-12h371.7c6.6 0 12 5.4 12 12s-5.4 12-12 12z" fill="#324a5e"/><path d="M357 339.9c-14.5 0-26.3-11.8-26.3-26.3V190.4c0-14.5 11.8-26.3 26.3-26.3s26.3 11.8 26.3 26.3v123.2c0 14.5-11.8 26.3-26.3 26.3z" fill="#fff"/><path d="M409.6 315.5c-14.5 0-26.3-11.8-26.3-26.3v-74.4c0-14.5 11.8-26.3 26.3-26.3s26.3 11.8 26.3 26.3v74.4c0 14.5-11.8 26.3-26.3 26.3z" fill="#e6e9ee"/><path d="M147 164.1c14.5 0 26.3 11.8 26.3 26.3v123.2c0 14.5-11.8 26.3-26.3 26.3s-26.3-11.8-26.3-26.3V190.4c0-14.5 11.8-26.3 26.3-26.3z" fill="#fff"/><path d="M94.4 188.5c14.5 0 26.3 11.8 26.3 26.3v74.4c0 14.5-11.8 26.3-26.3 26.3s-26.3-11.8-26.3-26.3v-74.4c0-14.5 11.8-26.3 26.3-26.3z" fill="#e6e9ee"/></svg>